# xmcd
#
# Track frame offsets:
#	150
#	2160
#	13682
#	26040
#	39692
#	53917
#	71912
#	82940
#	102350
#	122750
#	139255
#	151775
#	167775
#	182047
#
# Disc length: 2488 seconds
#
# Revision: 2
# Processed by: cddbd v1.5.2PL0 Copyright (c) Steve Scherf et al.
# Submitted via: MusicManager 7.3.0.0 
#
DISCID=b809b60e
DTITLE=Various Artist - Further Down The Road
DYEAR=1993
DGENRE=
TTITLE0=Various Artist - Introduction
TTITLE1=Various Artist - Whatcha Gonna Do With A Cowboy
TTITLE2=Various Artist - Dallas
TTITLE3=Various Artist - If Your Heart Ain't Busy Tonight
TTITLE4=Various Artist - Life's A Dance
TTITLE5=Various Artist - Maybe It Was Memphis
TTITLE6=Various Artist - Every Second
TTITLE7=Various Artist - Neon Moon
TTITLE8=Various Artist - Letting Go
TTITLE9=Various Artist - I Told You So
TTITLE10=Various Artist - There Ain't Nothing Wrong With The Radio
TTITLE11=Various Artist - Watch Me
TTITLE12=Various Artist - Walk On Faith
TTITLE13=Various Artist - Further Down The Road
EXTD=
EXTT0=
EXTT1=Chris LeDoux(Duet with Garth Brooks)
EXTT2=Alan Jackson
EXTT3=Tonya Tucker
EXTT4=John Micheal Montgomery
EXTT5=Pam Tillis
EXTT6=Colin Raye
EXTT7=Brooks and Dunn
EXTT8=Suzy Boggins
EXTT9=Randy Travis
EXTT10=Aaron Tippin
EXTT11=Lorrie Morgan
EXTT12=Mike Reid
EXTT13=
PLAYORDER=
